#Comment line ignore any data following # character 
#Hierarchical Translation and Rotation (.htr) file 
[Header]	
#Header keywords are followed by a single value 
FileType HTR		#Single word string
DataType HTRS		#Translation followed by rotation and scale data
FileVersion 1		#integer
NumSegments 84		#integer
NumFrames 2		#integer
DataFrameRate 30		#integer, data frame rate in this file
EulerRotationOrder ZYX
CalibrationUnits mm
RotationUnits Degrees
GlobalAxisofGravity Y
BoneLengthAxis Y
ScaleFactor 1.00
[SegmentNames&Hierarchy]
#CHILD	PARENT
MASTER GLOBAL
root MASTER
chest root
L_mid_tent01 root
R_mid_tent01 root
spine01 root
Bip01_Neck chest
L_humerus chest
R_humerus chest
weapon_bone chest
Bip01_Head Bip01_Neck
eye_left_bone Bip01_Head
eye_right_bone Bip01_Head
L_forearm L_humerus
L_front_hand L_forearm
L_weapon_bone L_forearm
L_front_hand01_01 L_front_hand
L_front_hand02_01 L_front_hand
L_front_hand03_01 L_front_hand
L_front_hand01_02 L_front_hand01_01
L_front_hand02_02 L_front_hand02_01
L_front_hand03_02 L_front_hand03_01
R_forearm R_humerus
R_front_hand R_forearm
R_weapon_bone R_forearm
R_front_hand01_01 R_front_hand
R_front_hand02_01 R_front_hand
R_front_hand03_01 R_front_hand
R_front_hand01_02 R_front_hand01_01
R_front_hand02_02 R_front_hand02_01
R_front_hand03_02 R_front_hand03_01
null_rope01_connect L_mid_tent01
Rope1_Seg01 null_rope01_connect
Rope1_Seg02 Rope1_Seg01
Rope1_Seg03 Rope1_Seg02
Rope1_Seg04 Rope1_Seg03
Rope1_Seg05 Rope1_Seg04
Rope1_Seg06 Rope1_Seg05
Rope1_Seg07 Rope1_Seg06
Rope1_Seg09 Rope1_Seg07
L_mid_hand01 Rope1_Seg09
L_mid_hand02 Rope1_Seg09
L_mid_hand03 Rope1_Seg09
null_rope02_connect R_mid_tent01
Rope2_Seg01 null_rope02_connect
Rope2_Seg02 Rope2_Seg01
Rope2_Seg03 Rope2_Seg02
Rope2_Seg04 Rope2_Seg03
Rope2_Seg05 Rope2_Seg04
Rope2_Seg06 Rope2_Seg05
Rope2_Seg07 Rope2_Seg06
Rope2_Seg09 Rope2_Seg07
R_mid_hand01 Rope2_Seg09
R_mid_hand02 Rope2_Seg09
R_mid_hand03 Rope2_Seg09
spine02 spine01
spine03 spine02
pelvis spine03
null_rope03_connect pelvis
null_rope04_connect pelvis
Rope3_Seg01 null_rope03_connect
Rope3_Seg02 Rope3_Seg01
Rope3_Seg03 Rope3_Seg02
Rope3_Seg04 Rope3_Seg03
Rope3_Seg05 Rope3_Seg04
Rope3_Seg06 Rope3_Seg05
Rope3_Seg07 Rope3_Seg06
Rope3_Seg08 Rope3_Seg07
Rope3_Seg09 Rope3_Seg08
R_rear_hand01 Rope3_Seg09
R_rear_hand02 Rope3_Seg09
R_rear_hand03 Rope3_Seg09
Rope4_Seg01 null_rope04_connect
Rope4_Seg02 Rope4_Seg01
Rope4_Seg03 Rope4_Seg02
Rope4_Seg04 Rope4_Seg03
Rope4_Seg05 Rope4_Seg04
Rope4_Seg06 Rope4_Seg05
Rope4_Seg07 Rope4_Seg06
Rope4_Seg08 Rope4_Seg07
Rope4_Seg09 Rope4_Seg08
L_rear_hand01 Rope4_Seg09
L_rear_hand02 Rope4_Seg09
L_rear_hand03 Rope4_Seg09
[BasePosition]
#SegmentName Tx, Ty, Tz, Rx, Ry, Rz, BoneLength
MASTER 0.000000 0.000000 0.000000 -90.000000 0.000000 0.000000 10.000000 
root 0.000000 0.000000 0.000000 0.000000 0.000000 0.000000 10.000000 
chest 0.000000 0.000000 0.000000 0.000000 0.000000 0.000000 10.000000 
L_mid_tent01 0.000000 0.000000 0.000000 0.000000 0.000000 0.000000 10.000000 
R_mid_tent01 0.000000 0.000000 0.000000 0.000000 0.000000 0.000000 10.000000 
spine01 0.000000 0.000000 0.000000 0.000000 0.000000 0.000000 10.000000 
Bip01_Neck 0.000000 0.000000 0.000000 0.000000 0.000000 0.000000 10.000000 
L_humerus 0.000000 0.000000 0.000000 0.000000 0.000000 0.000000 10.000000 
R_humerus 0.000000 0.000000 0.000000 0.000000 0.000000 0.000000 10.000000 
weapon_bone 0.000000 0.000000 0.000000 0.000000 0.000000 0.000000 10.000000 
Bip01_Head 0.000000 0.000000 0.000000 0.000000 0.000000 0.000000 10.000000 
eye_left_bone 0.000000 0.000000 0.000000 0.000000 0.000000 0.000000 10.000000 
eye_right_bone 0.000000 0.000000 0.000000 0.000000 0.000000 0.000000 10.000000 
L_forearm 0.000000 0.000000 0.000000 0.000000 0.000000 0.000000 10.000000 
L_front_hand 0.000000 0.000000 0.000000 0.000000 0.000000 0.000000 10.000000 
L_weapon_bone 0.000000 0.000000 0.000000 0.000000 0.000000 0.000000 10.000000 
L_front_hand01_01 0.000000 0.000000 0.000000 0.000000 0.000000 0.000000 10.000000 
L_front_hand02_01 0.000000 0.000000 0.000000 0.000000 0.000000 0.000000 10.000000 
L_front_hand03_01 0.000000 0.000000 0.000000 0.000000 0.000000 0.000000 10.000000 
L_front_hand01_02 0.000000 0.000000 0.000000 0.000000 0.000000 0.000000 10.000000 
L_front_hand02_02 0.000000 0.000000 0.000000 0.000000 0.000000 0.000000 10.000000 
L_front_hand03_02 0.000000 0.000000 0.000000 0.000000 0.000000 0.000000 10.000000 
R_forearm 0.000000 0.000000 0.000000 0.000000 0.000000 0.000000 10.000000 
R_front_hand 0.000000 0.000000 0.000000 0.000000 0.000000 0.000000 10.000000 
R_weapon_bone 0.000000 0.000000 0.000000 0.000000 0.000000 0.000000 10.000000 
R_front_hand01_01 0.000000 0.000000 0.000000 0.000000 0.000000 0.000000 10.000000 
R_front_hand02_01 0.000000 0.000000 0.000000 0.000000 0.000000 0.000000 10.000000 
R_front_hand03_01 0.000000 0.000000 0.000000 0.000000 0.000000 0.000000 10.000000 
R_front_hand01_02 0.000000 0.000000 0.000000 0.000000 0.000000 0.000000 10.000000 
R_front_hand02_02 0.000000 0.000000 0.000000 0.000000 0.000000 0.000000 10.000000 
R_front_hand03_02 0.000000 0.000000 0.000000 0.000000 0.000000 0.000000 10.000000 
null_rope01_connect 0.000000 0.000000 0.000000 0.000000 0.000000 0.000000 10.000000 
Rope1_Seg01 0.000000 0.000000 0.000000 0.000000 0.000000 0.000000 10.000000 
Rope1_Seg02 0.000000 0.000000 0.000000 0.000000 0.000000 0.000000 10.000000 
Rope1_Seg03 0.000000 0.000000 0.000000 0.000000 0.000000 0.000000 10.000000 
Rope1_Seg04 0.000000 0.000000 0.000000 0.000000 0.000000 0.000000 10.000000 
Rope1_Seg05 0.000000 0.000000 0.000000 0.000000 0.000000 0.000000 10.000000 
Rope1_Seg06 0.000000 0.000000 0.000000 0.000000 0.000000 0.000000 10.000000 
Rope1_Seg07 0.000000 0.000000 0.000000 0.000000 0.000000 0.000000 10.000000 
Rope1_Seg09 0.000000 0.000000 0.000000 0.000000 0.000000 0.000000 10.000000 
L_mid_hand01 0.000000 0.000000 0.000000 0.000000 0.000000 0.000000 10.000000 
L_mid_hand02 0.000000 0.000000 0.000000 0.000000 0.000000 0.000000 10.000000 
L_mid_hand03 0.000000 0.000000 0.000000 0.000000 0.000000 0.000000 10.000000 
null_rope02_connect 0.000000 0.000000 0.000000 0.000000 0.000000 0.000000 10.000000 
Rope2_Seg01 0.000000 0.000000 0.000000 0.000000 0.000000 0.000000 10.000000 
Rope2_Seg02 0.000000 0.000000 0.000000 0.000000 0.000000 0.000000 10.000000 
Rope2_Seg03 0.000000 0.000000 0.000000 0.000000 0.000000 0.000000 10.000000 
Rope2_Seg04 0.000000 0.000000 0.000000 0.000000 0.000000 0.000000 10.000000 
Rope2_Seg05 0.000000 0.000000 0.000000 0.000000 0.000000 0.000000 10.000000 
Rope2_Seg06 0.000000 0.000000 0.000000 0.000000 0.000000 0.000000 10.000000 
Rope2_Seg07 0.000000 0.000000 0.000000 0.000000 0.000000 0.000000 10.000000 
Rope2_Seg09 0.000000 0.000000 0.000000 0.000000 0.000000 0.000000 10.000000 
R_mid_hand01 0.000000 0.000000 0.000000 0.000000 0.000000 0.000000 10.000000 
R_mid_hand02 0.000000 0.000000 0.000000 0.000000 0.000000 0.000000 10.000000 
R_mid_hand03 0.000000 0.000000 0.000000 0.000000 0.000000 0.000000 10.000000 
spine02 0.000000 0.000000 0.000000 0.000000 0.000000 0.000000 10.000000 
spine03 0.000000 0.000000 0.000000 0.000000 0.000000 0.000000 10.000000 
pelvis 0.000000 0.000000 0.000000 0.000000 0.000000 0.000000 10.000000 
null_rope03_connect 0.000000 0.000000 0.000000 0.000000 0.000000 0.000000 10.000000 
null_rope04_connect 0.000000 0.000000 0.000000 0.000000 0.000000 0.000000 10.000000 
Rope3_Seg01 0.000000 0.000000 0.000000 0.000000 0.000000 0.000000 10.000000 
Rope3_Seg02 0.000000 0.000000 0.000000 0.000000 0.000000 0.000000 10.000000 
Rope3_Seg03 0.000000 0.000000 0.000000 0.000000 0.000000 0.000000 10.000000 
Rope3_Seg04 0.000000 0.000000 0.000000 0.000000 0.000000 0.000000 10.000000 
Rope3_Seg05 0.000000 0.000000 0.000000 0.000000 0.000000 0.000000 10.000000 
Rope3_Seg06 0.000000 0.000000 0.000000 0.000000 0.000000 0.000000 10.000000 
Rope3_Seg07 0.000000 0.000000 0.000000 0.000000 0.000000 0.000000 10.000000 
Rope3_Seg08 0.000000 0.000000 0.000000 0.000000 0.000000 0.000000 10.000000 
Rope3_Seg09 0.000000 0.000000 0.000000 0.000000 0.000000 0.000000 10.000000 
R_rear_hand01 0.000000 0.000000 0.000000 0.000000 0.000000 0.000000 10.000000 
R_rear_hand02 0.000000 0.000000 0.000000 0.000000 0.000000 0.000000 10.000000 
R_rear_hand03 0.000000 0.000000 0.000000 0.000000 0.000000 0.000000 10.000000 
Rope4_Seg01 0.000000 0.000000 0.000000 0.000000 0.000000 0.000000 10.000000 
Rope4_Seg02 0.000000 0.000000 0.000000 0.000000 0.000000 0.000000 10.000000 
Rope4_Seg03 0.000000 0.000000 0.000000 0.000000 0.000000 0.000000 10.000000 
Rope4_Seg04 0.000000 0.000000 0.000000 0.000000 0.000000 0.000000 10.000000 
Rope4_Seg05 0.000000 0.000000 0.000000 0.000000 0.000000 0.000000 10.000000 
Rope4_Seg06 0.000000 0.000000 0.000000 0.000000 0.000000 0.000000 10.000000 
Rope4_Seg07 0.000000 0.000000 0.000000 0.000000 0.000000 0.000000 10.000000 
Rope4_Seg08 0.000000 0.000000 0.000000 0.000000 0.000000 0.000000 10.000000 
Rope4_Seg09 0.000000 0.000000 0.000000 0.000000 0.000000 0.000000 10.000000 
L_rear_hand01 0.000000 0.000000 0.000000 0.000000 0.000000 0.000000 10.000000 
L_rear_hand02 0.000000 0.000000 0.000000 0.000000 0.000000 0.000000 10.000000 
L_rear_hand03 0.000000 0.000000 0.000000 0.000000 0.000000 0.000000 10.000000 
#Beginning of Data. Separated by tabs
#Fr	Tx	Ty	Tz	Rx	Ry	Rz	SF
[MASTER]
4 184.979691 -666.430176 184.514221 0.000000 -0.002347 -90.000000 715.815735
5 270.469513 -828.486328 262.757355 0.000000 -0.002347 -89.999992 910.266296
[root]
4 -85.859314 2.622555 1438.024414 -91.138847 -28.299374 178.072464 1440.587769
5 -88.783806 -6.805159 1371.155518 -92.847809 -32.871864 178.115585 1374.043701
[chest]
4 -84.512650 -34.090519 0.000000 -10.090414 -6.548022 174.736237 91.129311
5 -84.512650 -34.090519 0.000000 -13.343303 -8.790936 177.777145 91.129311
[L_mid_tent01]
4 27.299141 22.179159 -249.918701 0.688134 4.196850 71.327690 252.381699
5 27.299147 22.179163 -249.918701 0.144508 8.492355 70.418304 252.381699
[R_mid_tent01]
4 23.228794 24.509907 226.238495 166.717987 -19.206221 74.987045 228.744751
5 23.228794 24.509907 226.238495 167.538315 -21.049809 71.927292 228.744751
[spine01]
4 -0.361383 -0.195265 0.000000 0.001950 0.001306 22.369370 0.410763
5 -0.361383 -0.195265 0.000000 0.001951 0.001305 22.450058 0.410763
[Bip01_Neck]
4 165.484543 71.581718 0.000119 176.643677 -1.657967 43.431915 180.302734
5 165.484543 71.581718 0.000119 176.643677 -1.657967 43.431911 180.302734
[L_humerus]
4 -13.983130 -135.272980 -120.471481 -2.590859 68.401794 87.310150 181.680161
5 -13.983130 -135.272980 -120.471481 -0.713324 68.864258 89.140884 181.680161
[R_humerus]
4 -13.983309 -135.273102 125.287651 28.321678 -74.889481 67.148232 184.909012
5 -13.983309 -135.273102 125.287651 29.683020 -78.450394 65.678429 184.909012
[weapon_bone]
4 235.964890 -300.705902 0.000000 0.000000 -89.951546 -128.212341 382.234833
5 235.964890 -300.705902 0.000000 0.000000 -89.951546 -128.212341 382.234833
[Bip01_Head]
4 213.432861 185.747177 11.366797 9.851604 5.248483 -43.853466 283.169220
5 213.470551 185.642456 12.720028 11.515614 4.549523 -43.860725 283.186493
[eye_left_bone]
4 -24.626970 125.451866 -64.772606 0.000000 -90.000000 -99.840431 143.318359
5 -24.626970 125.451866 -64.772606 0.000000 -90.000000 -99.840431 143.318359
[eye_right_bone]
4 -24.626970 125.451866 64.327362 0.000000 -89.965736 80.156380 143.117676
5 -24.626970 125.451866 64.327362 0.000000 -89.972023 80.156387 143.117676
[L_forearm]
4 322.776093 0.000000 -0.000119 0.000409 -0.002311 -110.066895 322.776093
5 322.776093 0.000000 -0.000119 0.000413 -0.002311 -110.260017 322.776093
[L_front_hand]
4 241.149185 -0.042021 -3.300071 -178.667953 -1.835447 -27.422350 241.171753
5 241.149185 -0.042021 -3.300071 -178.667953 -1.835447 -27.422350 241.171753
[L_weapon_bone]
4 156.183838 0.000000 0.000000 0.000014 0.000007 0.000001 156.183838
5 156.183838 0.000000 0.000000 0.000014 0.000007 0.000001 156.183838
[L_front_hand01_01]
4 86.095154 20.947098 -0.655860 -0.364720 -0.478588 74.936234 88.609184
5 86.095154 20.947098 -0.655860 -0.351864 -0.488251 73.756912 88.609184
[L_front_hand02_01]
4 86.935165 -11.437475 24.513514 153.708527 -59.690228 -60.568150 91.046425
5 86.935165 -11.437475 24.513514 151.937775 -59.151119 -58.507736 91.046425
[L_front_hand03_01]
4 86.637497 -14.123976 -20.424902 -153.279221 57.922546 -61.955151 90.126129
5 86.637497 -14.123976 -20.424902 -151.626480 57.374607 -59.999687 90.126129
[L_front_hand01_02]
4 71.020905 -0.000179 0.000030 0.000318 -0.002326 -105.568283 71.020905
5 71.020905 -0.000179 0.000030 0.000317 -0.002326 -105.531021 71.020905
[L_front_hand02_02]
4 71.020927 -0.000119 0.000060 0.000318 -0.002326 -105.568283 71.020927
5 71.020927 -0.000119 0.000060 0.000317 -0.002326 -105.531021 71.020927
[L_front_hand03_02]
4 71.020905 -0.000060 0.000060 0.000318 -0.002326 -105.568283 71.020905
5 71.020905 -0.000060 0.000060 0.000317 -0.002326 -105.531021 71.020905
[R_forearm]
4 322.776428 -0.000060 0.000030 0.201727 0.066313 -108.718269 322.776428
5 322.776428 -0.000060 0.000030 0.201615 0.066650 -108.909950 322.776428
[R_front_hand]
4 238.847015 -0.006795 2.210259 -2.635298 -10.645461 -26.312506 238.857239
5 238.847015 -0.006795 2.210259 -2.635298 -10.645460 -26.312500 238.857239
[R_weapon_bone]
4 155.664093 0.002503 -0.000030 0.003487 0.001180 -90.988930 155.664078
5 155.664093 0.002503 -0.000030 0.003487 0.001180 -90.988930 155.664078
[R_front_hand01_01]
4 87.624611 14.231146 22.918642 -153.951385 -59.756744 60.953659 91.683487
5 87.624611 14.231146 22.918642 -152.176025 -59.222912 58.891888 91.683487
[R_front_hand02_01]
4 89.356956 14.367283 -19.491137 153.963715 58.112637 62.995499 92.579636
5 89.356956 14.367283 -19.491137 152.293427 57.581059 61.021759 92.579636
[R_front_hand03_01]
4 87.286232 -22.307278 -0.143439 0.156617 -0.426811 -75.329910 90.091743
5 87.286232 -22.307278 -0.143439 0.152228 -0.428396 -74.153709 90.091743
[R_front_hand01_02]
4 71.020905 0.000060 0.000119 0.002323 -0.000334 106.381714 71.020905
5 71.020905 0.000060 0.000119 0.002323 -0.000334 106.381714 71.020905
[R_front_hand02_02]
4 71.020844 -0.000030 -0.000119 0.002323 -0.000334 106.381714 71.020836
5 71.020844 -0.000030 -0.000119 0.002323 -0.000334 106.381714 71.020836
[R_front_hand03_02]
4 71.020905 0.000000 0.000030 0.002323 -0.000334 106.381714 71.020905
5 71.020905 0.000000 0.000030 0.002323 -0.000334 106.381714 71.020905
[null_rope01_connect]
4 328.732483 0.000000 -0.000238 119.259735 83.115814 -13.773458 328.732483
5 328.732483 0.000000 -0.000238 126.061745 77.317551 -1.521700 328.732483
[Rope1_Seg01]
4 0.000000 0.000000 0.000000 179.582581 52.286648 31.561478 0.000000
5 0.000000 0.000000 0.000000 -166.415390 48.772366 43.046684 0.000000
[Rope1_Seg02]
4 139.999863 -0.000179 0.000000 -4.661903 -8.230821 15.282185 139.999863
5 139.999863 -0.000179 0.000000 -10.650788 -4.909978 18.849052 139.999863
[Rope1_Seg03]
4 139.999924 0.000060 -0.000060 -3.989479 -6.141782 15.845226 139.999924
5 139.999924 0.000060 -0.000060 -6.155552 -4.931038 18.020996 139.999924
[Rope1_Seg04]
4 139.999924 -0.000060 -0.000119 -1.805422 -3.012265 11.214669 139.999924
5 139.999924 -0.000060 -0.000119 -1.902049 -5.493671 11.730452 139.999924
[Rope1_Seg05]
4 139.999832 0.000119 -0.000060 -1.324446 -21.845186 8.010521 139.999832
5 139.999832 0.000119 -0.000060 -1.671949 -21.180632 11.563597 139.999832
[Rope1_Seg06]
4 139.999954 0.000119 -0.000060 -12.677511 -34.560070 8.325653 139.999954
5 139.999954 0.000119 -0.000060 -7.111345 -24.565161 12.170185 139.999954
[Rope1_Seg07]
4 139.999985 0.000060 0.000000 -9.301913 -14.211956 1.543815 139.999985
5 139.999985 0.000060 0.000000 -5.252882 -11.965330 5.422440 139.999985
[Rope1_Seg09]
4 121.602913 0.000119 -0.000089 -89.793175 -1.359789 0.847147 121.602913
5 121.602913 0.000119 -0.000089 -89.793175 -1.359789 0.847147 121.602913
[L_mid_hand01]
4 103.859421 1.038730 8.195221 122.214600 -62.281212 -29.682934 104.187431
5 103.859421 1.038730 8.195221 118.511871 -58.710987 -25.432119 104.187431
[L_mid_hand02]
4 105.572853 -4.139662 -10.864139 -163.055786 41.815430 -64.846169 106.211075
5 105.572853 -4.139662 -10.864139 -159.626373 40.490181 -59.638344 106.211075
[L_mid_hand03]
4 104.641464 17.579376 -3.913581 -8.059162 17.002192 68.062859 106.179977
5 104.641464 17.579376 -3.913581 -9.285491 16.381809 63.801434 106.179977
[null_rope02_connect]
4 328.732849 0.000179 -0.000119 99.692307 -69.399216 -145.143784 328.732849
5 328.732849 0.000179 -0.000119 92.444626 -69.308945 -145.260620 328.732849
[Rope2_Seg01]
4 -0.000074 -0.000179 0.000000 -150.473297 46.010567 139.984955 0.000194
5 -0.000073 -0.000175 0.000000 -149.123871 42.211941 140.224854 0.000190
[Rope2_Seg02]
4 139.999741 -0.000060 -0.000119 2.214372 -8.046071 1.889047 139.999756
5 139.999741 -0.000060 -0.000119 5.341829 -7.028214 -0.108357 139.999756
[Rope2_Seg03]
4 140.000107 0.000030 0.000000 4.147120 -8.742934 -0.102084 140.000107
5 140.000107 0.000030 0.000000 10.982221 -4.060239 -5.461478 140.000107
[Rope2_Seg04]
4 139.999802 0.000000 -0.000060 -3.398621 -28.006575 13.757564 139.999802
5 139.999802 0.000000 -0.000060 -4.891629 -20.079882 12.940372 139.999802
[Rope2_Seg05]
4 139.999985 -0.000060 0.000119 -5.996692 -28.508352 24.586962 139.999985
5 139.999985 -0.000060 0.000119 -16.108826 -32.110378 41.872505 139.999985
[Rope2_Seg06]
4 139.999893 -0.000030 -0.000119 0.383589 -5.745463 4.138002 139.999893
5 139.999893 -0.000030 -0.000119 0.505231 -7.393214 6.489741 139.999893
[Rope2_Seg07]
4 139.999893 0.000060 -0.000060 0.285450 -2.748834 1.988605 139.999893
5 139.999893 0.000060 -0.000060 0.484822 -3.231603 2.872799 139.999893
[Rope2_Seg09]
4 121.338966 0.000089 -0.000060 33.793236 -1.359788 -0.847141 121.338966
5 121.338966 0.000089 -0.000060 33.793236 -1.359788 -0.847141 121.338966
[R_mid_hand01]
4 104.680779 11.144459 -10.335981 -19.035433 44.336296 66.455574 105.778534
5 104.680779 11.144459 -10.335981 -20.898426 43.633060 63.773407 105.778534
[R_mid_hand02]
4 104.070427 2.443552 8.231699 53.394081 -65.425781 34.575890 104.424065
5 104.070427 2.443552 8.231699 55.882156 -63.749565 31.819658 104.424065
[R_mid_hand03]
4 106.028137 -11.221827 -5.996406 -176.276184 15.379536 -73.491829 106.788818
5 106.028137 -11.221827 -5.996406 -175.717163 15.237030 -71.372292 106.788818
[spine02]
4 129.756927 0.001550 0.000119 0.423034 -4.038101 -13.863968 129.756927
5 129.756927 0.001550 0.000119 0.441668 -4.035965 -14.113944 129.756927
[spine03]
4 78.614075 0.081743 -4.899006 1.934458 3.811324 17.056746 78.766609
5 78.614075 0.081743 -4.899005 1.944723 3.805210 17.229614 78.766609
[pelvis]
4 169.435242 0.051022 0.000000 0.694354 -0.341618 13.055059 169.435257
5 169.435242 0.051022 0.000000 1.212529 -0.442405 12.301538 169.435257
[null_rope03_connect]
4 -1.257226 -2.466202 137.391083 66.219368 87.783005 -34.075481 137.418976
5 -1.257226 -2.466202 137.391083 90.075623 87.230064 -4.891631 137.418976
[null_rope04_connect]
4 -1.259640 -2.480268 -137.844437 66.219368 87.783005 -34.075481 137.872513
5 -1.259640 -2.480268 -137.844437 90.075623 87.230064 -4.891631 137.872513
[Rope3_Seg01]
4 0.000000 0.000000 0.000000 -131.043076 4.002222 82.906898 0.000000
5 0.000000 0.000000 0.000000 -128.521423 -4.579150 84.167786 0.000000
[Rope3_Seg02]
4 139.999924 -0.000119 0.000060 1.723960 -4.824564 -16.318865 139.999924
5 139.999924 -0.000119 0.000060 2.403665 -10.241396 -23.204023 139.999924
[Rope3_Seg03]
4 139.999924 -0.000119 0.000119 -3.133910 -9.058856 -47.249645 139.999924
5 139.999924 -0.000119 0.000119 -6.535174 -16.635101 -53.814117 139.999924
[Rope3_Seg04]
4 139.999924 0.000119 0.000000 -25.230522 -4.533263 -30.726242 139.999924
5 139.999924 0.000119 0.000000 -51.800484 -1.953901 -22.886490 139.999924
[Rope3_Seg05]
4 139.999924 -0.000238 0.000060 153.753677 -57.046558 -42.693916 139.999924
5 139.999924 -0.000238 0.000060 -94.711174 2.962305 -18.948675 139.999924
[Rope3_Seg06]
4 139.999893 -0.000119 -0.000060 10.675964 10.138920 50.793205 139.999893
5 139.999893 -0.000119 -0.000060 -35.486450 46.868679 6.361598 139.999893
[Rope3_Seg07]
4 139.999771 0.000060 -0.000119 0.229729 1.648535 6.205611 139.999771
5 139.999771 0.000060 -0.000119 1.938352 15.391606 18.584948 139.999771
[Rope3_Seg08]
4 139.999985 -0.000060 0.000000 0.501664 0.123333 0.452272 139.999985
5 139.999985 -0.000060 0.000000 0.792971 5.793106 6.904594 139.999985
[Rope3_Seg09]
4 90.185997 -0.000179 -0.000060 89.793228 -1.359877 -0.847183 90.185997
5 90.185997 -0.000179 -0.000060 89.793228 -1.359877 -0.847183 90.185997
[R_rear_hand01]
4 103.366196 -6.073594 -10.757982 -176.027405 24.361639 -69.845337 104.101845
5 103.366196 -6.073594 -10.757982 -174.893967 24.166164 -67.090828 104.101845
[R_rear_hand02]
4 100.509819 12.039542 -7.992327 -15.526569 35.959644 67.697304 101.543350
5 100.509819 12.039542 -7.992327 -17.255272 35.248016 64.724976 101.543350
[R_rear_hand03]
4 101.539970 5.215704 5.435467 74.484840 -68.272476 18.324221 101.819031
5 101.539970 5.215704 5.435467 75.989647 -65.836792 16.686356 101.819031
[Rope4_Seg01]
4 0.000010 0.000036 -0.000143 47.977772 1.983562 64.213615 0.000148
5 0.000010 0.000035 -0.000140 49.850815 -6.407357 66.914482 0.000145
[Rope4_Seg02]
4 139.999985 0.000060 0.000119 -0.488465 1.095765 -2.110110 139.999985
5 139.999985 0.000060 0.000119 -0.713311 -1.386288 -4.313667 139.999985
[Rope4_Seg03]
4 139.999924 0.000000 -0.000238 -0.624013 1.947307 -2.462590 139.999924
5 139.999924 0.000000 -0.000238 -1.179176 -1.041762 -5.168000 139.999924
[Rope4_Seg04]
4 139.999985 0.000000 0.000119 0.674506 7.986721 5.722760 139.999985
5 139.999985 0.000000 0.000119 -5.259834 -3.900235 -16.337606 139.999985
[Rope4_Seg05]
4 139.999802 -0.000060 -0.000119 -6.039257 -12.190784 -44.317459 139.999802
5 139.999802 -0.000060 -0.000119 -54.399647 -16.284222 -75.608269 139.999802
[Rope4_Seg06]
4 139.999924 0.000000 0.000060 -27.692812 -6.168760 -39.450146 139.999924
5 139.999924 0.000000 0.000060 -7.571321 7.511337 -6.250402 139.999924
[Rope4_Seg07]
4 139.999802 0.000000 0.000000 -9.293370 3.574315 -8.755954 139.999802
5 139.999802 0.000000 0.000000 -2.251147 3.183523 -2.000826 139.999802
[Rope4_Seg08]
4 139.999924 0.000000 0.000119 -5.370872 2.135486 -3.510930 139.999924
5 139.999924 0.000000 0.000119 -2.539415 1.628371 -0.934871 139.999924
[Rope4_Seg09]
4 90.185791 0.000060 0.000060 -135.617828 2.228885 0.850567 90.185791
5 90.185791 0.000060 0.000060 -135.617828 2.228885 0.850567 90.185791
[L_rear_hand01]
4 101.696655 -8.392275 -7.654577 -21.754835 -32.891220 123.292336 102.329041
5 101.696655 -8.392275 -7.654577 -25.776871 -29.993465 130.987762 102.329041
[L_rear_hand02]
4 102.726799 -1.568258 5.773216 78.924995 58.957420 166.614075 102.900848
5 102.726799 -1.568258 5.773216 80.757904 51.892082 168.841858 102.900848
[L_rear_hand03]
4 104.552910 9.721220 -10.420293 -171.809464 -23.347528 -120.557564 105.519653
5 104.552910 9.721220 -10.420293 -168.841812 -22.136347 -128.226929 105.519653
